<svg id="Слой_2" data-name="Слой 2" xmlns="http://www.w3.org/2000/svg" viewBox="0 0 346.1 544.5" style="">
  <title>IMG_0344 2</title>
  <path d="M1091.2,412.9a28.4,28.4,0,0,0,6-4.3,28.7,28.7,0,0,0,6.3-8.3,41.8,41.8,0,0,1-6.1,36.6,63.4,63.4,0,0,1-27.6,19.3,56.9,56.9,0,0,1-12.6,3c5.1-4.3,10.3-8.8,15.5-13.4s10.9-9.8,16-14.6c.6-.8,1.2-1.9.8-2.8s-6.6-2.1-14.5-1.8a62.4,62.4,0,0,0-13.8,1.6,56.2,56.2,0,0,0-5.8,1.6q4.3,1.2,9.6,2.1a86.4,86.4,0,0,0,22.3.8,21.7,21.7,0,0,0,3.7-11,32.2,32.2,0,0,0-.8-6.1c-.3-1-.7-1.9-.9-2.5a98.3,98.3,0,0,0-16.2,5.6,88.5,88.5,0,0,0-15.4,8.9,78.2,78.2,0,0,0,16.1-4.4c6.1-2.4,13.4-6.1,13.7-5.6s-2.9,1.7-3.7,4.8a7,7,0,0,0,0,3.8,70.4,70.4,0,0,0-18.6,1.2c-7.6,1.6-12.6,4-22.1,4.5a55.1,55.1,0,0,1-8.2,0,7.3,7.3,0,0,1-1.5-2c-3.4-7.1,7.1-18.4,7.9-19.2,17.4-18.4,56.6-4,59.8-13.9.7-2.2-.9-4.4-1.2-4.8-5.4-7.6-32.8-5.7-47.6,8.3-3.4,3.2-8.8,9.5-17.6,11a14.1,14.1,0,0,1-6.7-.3c-1.9-.8-5.2-3.1-8.6-21.7a103.4,103.4,0,0,1-1.5-25.8c.3-4.9.8-8.5,3.4-10.1s5.9-.7,7.9,1.1c4.8,4.4,2.6,17.9-4.6,21-5.2,2.1-11.7-1.4-15.1-5-7.8-8.4-6.2-25.2,3.6-42.5a48.6,48.6,0,0,1,18.5-3.5c12,.1,17.1,5.3,28.4,6.1,5.5.5,13.5-.1,23.4-4.6a34,34,0,0,1,9.1,5c11.2,8.6,8.5,18.2,19.2,32.7,6.7,9.1,11.5,10.5,12,17s-3.4,11.8-6.6,15.4a1.5,1.5,0,0,0,.9,1c1,.7,2.6.4,4-.6a33.2,33.2,0,0,1-1.4,13,25.2,25.2,0,0,1-1.3,3.3,44.5,44.5,0,0,1-1.9-5,30.8,30.8,0,0,1-.8-10.4,14.1,14.1,0,0,0,4.3-1.4,13.5,13.5,0,0,0,4.1-3.2,12.7,12.7,0,0,0,1.6-5.2,12.1,12.1,0,0,0-.6-4.8,44.7,44.7,0,0,1-4.5,8,42.6,42.6,0,0,1-4.4,5.3,22.8,22.8,0,0,0-.1,9.9,24.5,24.5,0,0,0,4.3,9.2c4,5.8,10.1,14.7,21.8,22.4,4.4,2.9,6.5,3.6,8.9,6.9s5.4,9.8,3,14.3-6.6,2.2-11,6.9-5.3,11.1-3.6,16.8a17.9,17.9,0,0,0,4.5,7.5l-1.4,6.5a5.7,5.7,0,0,0-1-4.2,6.3,6.3,0,0,0-3.8-2.3,16.6,16.6,0,0,1-3.4,4.3c-2.2,2.1-4.1,2.8-8.6,4.5-10.1,4-12.5,5.5-13.4,8a7.6,7.6,0,0,0-.3,2.8h2.3c3.4-.2,5.2-1.9,9.7-4a36.9,36.9,0,0,1,3.9-1.6c8-2.9,10.6-5.2,11.5-6.8s.7-1.3,1.3-1.3,2,1.9,2,3.4c.2,3.3-3.8,5.6-4.1,5.8,4.1,1,6.8,4.4,6.6,7.6a6.6,6.6,0,0,1-2.7,4.9,8.6,8.6,0,0,1-5.6,1c-3.4-.4-21.7-3.2-21.5-7.8s9.2-6,16.1-6.1a27.5,27.5,0,0,1,5.6.5" transform="translate(-810.4 -254.7)" fill="none" stroke="#0c0000" stroke-miterlimit="10" class="cMXsibCv_0"></path>
  <path d="M1088,417.8a11.4,11.4,0,0,1,1.4,4,12.4,12.4,0,0,1-.6,5" transform="translate(-810.4 -254.7)" fill="none" class="cMXsibCv_1"></path>
  <path d="M1153.5,448.7a8.7,8.7,0,0,0-8.2,12.8,51.1,51.1,0,0,1-5.8,4.8,49.9,49.9,0,0,1-8.7,4.9,11.4,11.4,0,0,1-6.8-1.2,10.8,10.8,0,0,1-3.8-3.1,9.6,9.6,0,0,1-1.5-7.3,9.3,9.3,0,0,1,5.7-6.2" transform="translate(-810.4 -254.7)" fill="none" stroke="#0c0101" stroke-miterlimit="10" class="cMXsibCv_2"></path>
  <path d="M1143.5,457.1a18.9,18.9,0,0,0-7.3,4.8,19.3,19.3,0,0,0-4.3,7.5" transform="translate(-810.4 -254.7)" fill="none" stroke="#000" stroke-miterlimit="10" class="cMXsibCv_3"></path>
  <path d="M1140,506.1a20.1,20.1,0,0,1,1,7.8,22,22,0,0,1-2.3,8.7,33.2,33.2,0,0,0-1.3,8.1c-.3,8.7,3.3,12.6,3.3,17.6s-2.8,10.5-15.3,18c-14.2.1-27.2-.4-38.9-1.3s-22.5-2.1-31.5-3.4c-34.1-4.9-45.6-10.5-52.6-19.1A130.5,130.5,0,0,1,988.5,521c-2.8-5.9-3.8-9.1-7.7-16.2-4.8-8.7-7.6-11.4-9.6-15-3.5-6.5-5.2-17.8,4.5-38.6a156.3,156.3,0,0,0,73.1,52.1c10.5.5,19,.3,24.6,0,11.9-.6,18.6-1.9,27.7.8a43.1,43.1,0,0,1,11.9,5.5" transform="translate(-810.4 -254.7)" fill="none" stroke="#070000" stroke-miterlimit="10" class="cMXsibCv_4"></path>
  <path d="M1083.2,566.3a24.4,24.4,0,0,0-8.8,9.2c-5.8,11,1.2,20-1.7,32.8-1.9,8.5-6.2,9.9-15.7,22.3a113.1,113.1,0,0,0-11.3,17.3c-7.9,15.2-8.9,21.9-11.9,22s-3.6-16.5-12.6-32.3-26-23.7-60.2-40.1c-10.1-4.8-23.3-10.8-39.1-17,1.2-7.6,3.9-31.5-10.3-55a79.3,79.3,0,0,0-23.1-24.2A227.9,227.9,0,0,1,868.6,471c-4.2-7.8-5.6-11.8-6.4-14.4-3.5-10.8-1-12.3-4.2-19.2-4.6-10.2-11-9.9-12.1-18.3-.5-3.8.4-6.6-1.5-11a20.6,20.6,0,0,0-5-6.8,22.6,22.6,0,0,1-1.5-11.1c.4-3.7,1.6-4.9,2.8-8.7,2.7-8.5-1-10.6,1.6-18.3,1.6-4.9,4.3-8.9,7.7-14,4.8-7.3,7.7-9.8,6.9-13.3s-4.7-3.7-5.1-7.2c-.2-1.8.6-3.5,5.6-9.2,2.2-2.5,5.5-6,9.6-9.8-4.5,7.2-6,11.4-4.7,12.7s10-2.3,24.1-12.7a7.3,7.3,0,0,1-1-4.9c1.2-5.3,10.5-6.6,20.7-9.8,14-4.2,16-7.5,21.8-10.1a34.5,34.5,0,0,1,7.8-2.4c14.6-3.2,21.6,2.5,30.7-2.2,3.8-2,2.5-3,9.7-7.9,5-3.4,8.1-5.5,12.3-6.7,9.2-2.6,11.1,1.6,22.9,0,8.1-1.1,15.5-4.5,18-5.6,7.4-3.3,7.9-4.9,11.4-4.9,7.2.2,7.9,7.6,17,10.1,7.1,1.9,10.1-1.8,15.4,1.3s6.4,7.8,7.1,9.9c3,8.8-2.2,11.5-.6,20.7,1.8,10.7,10,14.1,8.3,21.8a13,13,0,0,1-4.5,7,43.5,43.5,0,0,1-9.3-5.3c-18.7-13.7-15.4-34.7-29.9-45.4-4.6-3.4-15-13.5-26.8-5.3l-11.3,1.3a200.4,200.4,0,0,1-21.5,19.1c-10.1,7.8-15.3,11.7-21.8,13.2-10.5,2.4-14.8-2.2-28.2-2.2a63.5,63.5,0,0,0-25.1,5.3h0A170.8,170.8,0,0,0,891.8,317c-7.9,4-33.2,32.7-34.5,73.2-1,28.2,10.3,47.7,9.1,48.1s-16.7-21.9-14.5-49.8,20.4-51.2,41.2-63.4l6.4-3.3,4.6-2.3c4.9-2.3,11.3-4.9,13.9-5.8,9-2.9,20.6-.4,26.4,1.3s16,5.2,24.7,1.5,10.9-10.6,20-21.8a137.7,137.7,0,0,1,23-22A164.5,164.5,0,0,0,997,289c-7.2,9-10.8,13.7-11.9,19.8-1.9,10.7,4,20.2,7.6,24.9a80.6,80.6,0,0,0,5.5-13.1c3.2-10.1,2-12.9,4.1-18.2,4.7-11.6,20.2-21.3,29.4-16.9,6.4,3,7.8,12.1,8.2,14.3.9,6,0,15.8-5.1,17.9s-9.3-6.4-17.7-5.7c-3.9.3-6.2,2.9-18.4,18.3s-11,14-12.7,15.7a62,62,0,0,1-26.7,15.9c-22.4,5.8-31.5-12.7-51.4-9.4-13.8,2.3-24.1,15.7-29.2,21.6-7.8,9-10.8,16.3-11.7,15.8s6.8-22.5,17.5-42.6,15.2-22.7,18.5-24.5c5.3-2.9,13-3.7,28.3-5.1s18.1-.3,20.5.6c6.3,2.2,7.8,5,13.2,5.6,8.9.9,16.8-5.3,16.5-6s-8,3.2-33.7,11.2c-30.3,9.5-35.6,9-44.6,15.4-12,8.7-17.1,20.4-22,31.2-12.8,28.1-10.3,55.3-9.1,55.5s.8-10.8,7.7-25.1c6-12.4,13.3-19.3,12.9-19.6s-10.5,6.8-15.3,19.4c-3.3,8.8-3.2,18.2-3.2,27.1.1,5.3.5,10.4.6,11.1,1,12.8,3.1,19.4,1.7,20s-6.8-8.6-6.9-8.5,3.2,6.4,12.3,20.3c3.9,6,18,27.6,19.4,26.8s-11.6-15.6-17.1-36.9a58.4,58.4,0,0,1-1.3-6.3c-5.5-31.7,8-73.8,34.3-84.6,18.8-7.7,30.5,6.2,50.2-4.2s24.1-32.5,28.3-31.2,3.4,12.3-4.2,52.5a85.9,85.9,0,0,1-53.1,34.8c8.9-5.3,18.1-11.1,27.4-17.3l14.2-9.8a140.1,140.1,0,0,1-25.7,6.6,138.4,138.4,0,0,1-32.1,1l10.2-3.9c16.8-5.8,23.5-6,35.4-10.2,15-5.2,24.1-11.8,24.1-12s-20.5,12-48.4,16.6c-2.2.4-13.9,2.3-14.3.8s15.8-8,30.8-13.2c-7.1-.1-35.7.6-56.1,22.1-22,23.2-18.8,57.4-18.4,57.5s.8-20,14.6-38.9A77,77,0,0,1,920,407.4" transform="translate(-810.4 -254.7)" fill="none" stroke="#050000" stroke-miterlimit="10" class="cMXsibCv_5"></path>
  <path d="M889.2,469.4a23.3,23.3,0,0,1,5.9-11.1c4.4-4.5,9.7-5.9,9.4-8.6s-3.9-2.6-3.9-4.1,6.8-4.1,20.3-5.3c20.9-1.8,25.6,1.7,35.4-1.1,6.2-1.7,14.3-5.9,22.6-16.9a125.1,125.1,0,0,0-36.7,2.2,123.7,123.7,0,0,0-23.4,7.6,58,58,0,0,0-12.4,14.5c-1.5,2.6-12.8,22.1-6.6,42.6,3.8,12.5,9.9,11.5,16.8,29.6,4.2,11.1,4.9,19.3,6.6,19.2s2.6-11.4,2.2-19.7c-.4-11.5-.7-15.8-3.4-19.2s-2.2-1.8-4.6-4.6a42.3,42.3,0,0,1-6.6-11.3c-3.1-8.6-2.4-26.9,10.1-33.2,8.5-4.3,19.1-1.1,25.1,3.7s7.6,9.9,9.6,14.8c3.2,7.5,2,9.2,5.1,15.4,4.3,8.6,11.1,14.3,11.9,13.7s-4.1-5.1-6.4-13.1c-4.9-16.6,5.3-32.1,6.4-33.7s1.3-1.5,9.9-10.7c6.9-7.3,9.9-10.9,19.5-21.9l18.4-20.9" transform="translate(-810.4 -254.7)" fill="none" stroke="#050000" stroke-miterlimit="10" class="cMXsibCv_6"></path>
  <path d="M931.7,491.9a11.8,11.8,0,0,1,1-6.6c1.5-3.1,3.9-4.1,6.9-6.9a34.3,34.3,0,0,0,6.6-8.4c.6,1,4.8,7.7,2.3,15.8a17.9,17.9,0,0,1-7.7,10.2,22,22,0,0,1-3.6-8c-2-8.2,1.8-12.9-1.5-19.3-.7-1.3-1.9-3.5-4.1-4.1s-6,1.8-7.3,3.7c-5.5,7.7,2.4,28.1,14.2,31.5,2.1.6,2.5.2,17.3,0h10c-.1-6.5-2.1-9.9-4.1-11.8s-4.4-2.1-7.4-5.2-2.7-4.7-4.9-9a50.3,50.3,0,0,0-7.3-10.8c-3.7-3.9-12.4-10.7-18.7-8.3s-9.3,15.6-7.2,24.9c2.6,11.6,12.9,20.5,23.3,24,16.6,5.7,35.9-1.5,36.8,1.8.3,1.3-1.7,5.6-2.6,7.4,0,.1-.1.2-.1.3s-4,3.4-12,3.6c-5.3.1-18.3.4-29.7-8.6-5.1-4-7.5-8-8.8-7.3s1.6,7.8,2.3,17.5c.6,7.6-.9,10.4-2.2,19.7-2.6,18.5,1.5,22.1-.9,39.4a98.8,98.8,0,0,1-5.1,21.1,29.1,29.1,0,0,0-7.3,3.5c-9.9,6.9-7.5,16.2-16.6,31.6-6.2,10.6-13.2,16-11,19.7.9,1.7,3.3,2.2,5.1,2.4,4.4,1.2,11.6,3,20.5,4.7,44.5,8.5,64.7.9,83,16.2,7.2,6,11.9,13.8,13.8,17a82.4,82.4,0,0,1,10.7,29.6" transform="translate(-810.4 -254.7)" fill="none" stroke="#000" stroke-miterlimit="10" class="cMXsibCv_7"></path>
  <path d="M976.7,647a197.9,197.9,0,0,1,19.1,25.2c17.6,27.3,22.9,49.6,28.7,48.6,2.6-.4,3.7-5.5,5.9-15.8a161.8,161.8,0,0,0,3.4-35.1,130.9,130.9,0,0,0-3.6,29.3c0,6.6.4,18.8,9.2,51.3,3,11.3,7.4,26.3,13.5,43.8-7-12.9-14-26.9-20.8-41.8-9-20-16.5-39.1-22.7-56.9" transform="translate(-810.4 -254.7)" fill="none" stroke="#000" stroke-miterlimit="10" class="cMXsibCv_8"></path>
  <path d="M893.4,669.9c5.9-2.4,6.7-4.2,6.7-5.3,0-3.8-11.5-6.5-16.1-7.5-17.1,19.3-26.9,32.9-32.7,42.1A196.4,196.4,0,0,1,837,719.5c-9.1,11-10.4,9.8-12.9,15.1-5.5,11.6,1,17.5-4.8,31.9-2.3,5.9-3.9,6.1-6,12.4a48.7,48.7,0,0,0-2.2,20.3" transform="translate(-810.4 -254.7)" fill="none" stroke="#000" stroke-miterlimit="10" class="cMXsibCv_9"></path>
<style data-made-with="vivus-instant">.cMXsibCv_0{stroke-dasharray:1208 1210;stroke-dashoffset:1209;animation:cMXsibCv_draw_0 7200ms ease-out 0ms infinite,cMXsibCv_fade 7200ms linear 0ms infinite;}.cMXsibCv_1{stroke-dasharray:10 12;stroke-dashoffset:11;animation:cMXsibCv_draw_1 7200ms ease-out 0ms infinite,cMXsibCv_fade 7200ms linear 0ms infinite;}.cMXsibCv_2{stroke-dasharray:65 67;stroke-dashoffset:66;animation:cMXsibCv_draw_2 7200ms ease-out 0ms infinite,cMXsibCv_fade 7200ms linear 0ms infinite;}.cMXsibCv_3{stroke-dasharray:18 20;stroke-dashoffset:19;animation:cMXsibCv_draw_3 7200ms ease-out 0ms infinite,cMXsibCv_fade 7200ms linear 0ms infinite;}.cMXsibCv_4{stroke-dasharray:455 457;stroke-dashoffset:456;animation:cMXsibCv_draw_4 7200ms ease-out 0ms infinite,cMXsibCv_fade 7200ms linear 0ms infinite;}.cMXsibCv_5{stroke-dasharray:3301 3303;stroke-dashoffset:3302;animation:cMXsibCv_draw_5 7200ms ease-out 0ms infinite,cMXsibCv_fade 7200ms linear 0ms infinite;}.cMXsibCv_6{stroke-dasharray:596 598;stroke-dashoffset:597;animation:cMXsibCv_draw_6 7200ms ease-out 0ms infinite,cMXsibCv_fade 7200ms linear 0ms infinite;}.cMXsibCv_7{stroke-dasharray:730 732;stroke-dashoffset:731;animation:cMXsibCv_draw_7 7200ms ease-out 0ms infinite,cMXsibCv_fade 7200ms linear 0ms infinite;}.cMXsibCv_8{stroke-dasharray:378 380;stroke-dashoffset:379;animation:cMXsibCv_draw_8 7200ms ease-out 0ms infinite,cMXsibCv_fade 7200ms linear 0ms infinite;}.cMXsibCv_9{stroke-dasharray:193 195;stroke-dashoffset:194;animation:cMXsibCv_draw_9 7200ms ease-out 0ms infinite,cMXsibCv_fade 7200ms linear 0ms infinite;}@keyframes cMXsibCv_draw{100%{stroke-dashoffset:0;}}@keyframes cMXsibCv_fade{0%{stroke-opacity:1;}94.44444444444444%{stroke-opacity:1;}100%{stroke-opacity:0;}}@keyframes cMXsibCv_draw_0{11.11111111111111%{stroke-dashoffset: 1209}38.88888888888889%{ stroke-dashoffset: 0;}100%{ stroke-dashoffset: 0;}}@keyframes cMXsibCv_draw_1{12.654320987654321%{stroke-dashoffset: 11}40.4320987654321%{ stroke-dashoffset: 0;}100%{ stroke-dashoffset: 0;}}@keyframes cMXsibCv_draw_2{14.19753086419753%{stroke-dashoffset: 66}41.9753086419753%{ stroke-dashoffset: 0;}100%{ stroke-dashoffset: 0;}}@keyframes cMXsibCv_draw_3{15.740740740740744%{stroke-dashoffset: 19}43.518518518518526%{ stroke-dashoffset: 0;}100%{ stroke-dashoffset: 0;}}@keyframes cMXsibCv_draw_4{17.28395061728395%{stroke-dashoffset: 456}45.06172839506173%{ stroke-dashoffset: 0;}100%{ stroke-dashoffset: 0;}}@keyframes cMXsibCv_draw_5{18.82716049382716%{stroke-dashoffset: 3302}46.60493827160494%{ stroke-dashoffset: 0;}100%{ stroke-dashoffset: 0;}}@keyframes cMXsibCv_draw_6{20.370370370370374%{stroke-dashoffset: 597}48.14814814814815%{ stroke-dashoffset: 0;}100%{ stroke-dashoffset: 0;}}@keyframes cMXsibCv_draw_7{21.91358024691358%{stroke-dashoffset: 731}49.691358024691354%{ stroke-dashoffset: 0;}100%{ stroke-dashoffset: 0;}}@keyframes cMXsibCv_draw_8{23.45679012345679%{stroke-dashoffset: 379}51.23456790123456%{ stroke-dashoffset: 0;}100%{ stroke-dashoffset: 0;}}@keyframes cMXsibCv_draw_9{25%{stroke-dashoffset: 194}52.77777777777778%{ stroke-dashoffset: 0;}100%{ stroke-dashoffset: 0;}}</style></svg>
