<svg id="Слой_1" data-name="Слой 1" xmlns="http://www.w3.org/2000/svg" viewBox="0 0 79 72">
  <title>wTilda_Icons_40_IT_technical</title>
  <path d="M42.5,79H15V36H80v5.5a1.5,1.5,0,0,0,3,0v-21A1.5,1.5,0,0,0,81.5,19h-68A1.5,1.5,0,0,0,12,20.5v60A1.5,1.5,0,0,0,13.5,82h29a1.5,1.5,0,0,0,0-3ZM80,22V33H15V22Z" transform="translate(-12 -19)" fill="#fff"/>
  <path d="M20.5,29h5a1.5,1.5,0,0,0,0-3h-5a1.5,1.5,0,0,0,0,3Z" transform="translate(-12 -19)" fill="#fff"/>
  <path d="M31.5,29h5a1.5,1.5,0,0,0,0-3h-5a1.5,1.5,0,0,0,0,3Z" transform="translate(-12 -19)" fill="#fff"/>
  <path d="M67,57A10,10,0,1,0,77,67,10,10,0,0,0,67,57Zm0,17a7,7,0,1,1,7-7A7,7,0,0,1,67,74Z" transform="translate(-12 -19)" fill="#fff"/>
  <path d="M89.7,61.7,84,60.8a20.3,20.3,0,0,0-1.1-2.6l3.5-4.7a1.5,1.5,0,0,0-.2-2l-4.8-4.8a1.5,1.5,0,0,0-2-.1L74.8,50l-2.6-1-.9-5.7A1.4,1.4,0,0,0,69.9,42H63.1a1.4,1.4,0,0,0-1.4,1.3L60.8,49l-2.6,1.1-4.7-3.4a1.5,1.5,0,0,0-2,.1l-4.7,4.8a1.4,1.4,0,0,0-.2,2L50,58.2a27.7,27.7,0,0,0-1,2.6l-5.7.8A1.6,1.6,0,0,0,42,63.1v6.8a1.6,1.6,0,0,0,1.3,1.5l5.7.8a20.3,20.3,0,0,0,1.1,2.6l-3.5,4.7a1.5,1.5,0,0,0,.2,2l4.8,4.7a1.4,1.4,0,0,0,2,.2l4.7-3.5L60.8,84l.9,5.8A1.4,1.4,0,0,0,63.1,91h6.8a1.6,1.6,0,0,0,1.5-1.3l.8-5.8,2.6-1,4.7,3.4a1.4,1.4,0,0,0,2-.1l4.8-4.8a1.5,1.5,0,0,0,.1-2l-3.5-4.7A18.9,18.9,0,0,0,84,72.2l5.8-.9A1.4,1.4,0,0,0,91,69.9V63.1A1.4,1.4,0,0,0,89.7,61.7ZM88,68.6l-5.4.8a1.6,1.6,0,0,0-1.3,1.1,13.1,13.1,0,0,1-1.5,3.7,1.5,1.5,0,0,0,.1,1.6l3.3,4.4-3,3-4.4-3.3a1.5,1.5,0,0,0-1.7-.1,11.4,11.4,0,0,1-3.6,1.5,1.5,1.5,0,0,0-1.1,1.2L68.6,88H64.4l-.8-5.5a1.5,1.5,0,0,0-1.1-1.2,13.1,13.1,0,0,1-3.7-1.5,1.4,1.4,0,0,0-1.6.1l-4.4,3.3-3-3,3.3-4.4a1.4,1.4,0,0,0,.1-1.6,13.1,13.1,0,0,1-1.5-3.7,1.6,1.6,0,0,0-1.3-1.1L45,68.6V64.4l5.4-.8a1.4,1.4,0,0,0,1.2-1.1,17.3,17.3,0,0,1,1.6-3.7,1.5,1.5,0,0,0-.1-1.6l-3.3-4.4,3-3,4.4,3.3a1.5,1.5,0,0,0,1.6,0,16.9,16.9,0,0,1,3.7-1.5,1.5,1.5,0,0,0,1.1-1.2l.8-5.4h4.2l.8,5.4a1.5,1.5,0,0,0,1.1,1.2,15.1,15.1,0,0,1,3.7,1.5,1.5,1.5,0,0,0,1.7,0l4.3-3.3,3,3-3.3,4.4a1.5,1.5,0,0,0,0,1.6,23.9,23.9,0,0,1,1.5,3.7,1.4,1.4,0,0,0,1.2,1.1l5.4.8Z" transform="translate(-12 -19)" fill="#fff"/>
</svg>
