<svg id="Слой_1" data-name="Слой 1" xmlns="http://www.w3.org/2000/svg" viewBox="0 0 79 66">
  <title>wTilda_Icons_40_IT_adaptive</title>
  <path d="M14,7H8a1.5,1.5,0,0,0,0,3h6a1.5,1.5,0,0,0,0-3Z" fill="#fff"/>
  <path d="M28,7H22a1.5,1.5,0,0,0,0,3h6a1.5,1.5,0,0,0,0-3Z" fill="#fff"/>
  <path d="M74.4,13H72V5.1A5.1,5.1,0,0,0,66.9,0H5.1A5.1,5.1,0,0,0,0,5.1H0V44.9A5.1,5.1,0,0,0,5.1,50H9V61.4A4.5,4.5,0,0,0,13.4,66h14A4.5,4.5,0,0,0,32,61.6V50h7V61.4A4.5,4.5,0,0,0,43.4,66h31A4.5,4.5,0,0,0,79,61.6v-44A4.5,4.5,0,0,0,74.6,13Zm-47,50H13.6A1.6,1.6,0,0,1,12,61.4V31.6A1.6,1.6,0,0,1,13.6,30H27.4A1.6,1.6,0,0,1,29,31.6V48.5h0V61.4A1.6,1.6,0,0,1,27.4,63ZM32,47V31.6A4.5,4.5,0,0,0,27.6,27h-14A4.5,4.5,0,0,0,9,31.4V47H5.1A2.1,2.1,0,0,1,3,44.9H3V5.1A2.1,2.1,0,0,1,5.1,3H66.9A2.1,2.1,0,0,1,69,5.1V13H43.6A4.5,4.5,0,0,0,39,17.4V47ZM76,61.4A1.6,1.6,0,0,1,74.4,63H43.6A1.6,1.6,0,0,1,42,61.4V17.6A1.6,1.6,0,0,1,43.6,16H74.4A1.6,1.6,0,0,1,76,17.6Z" fill="#fff"/>
  <circle cx="59" cy="57" r="2.5" fill="#fff"/>
</svg>
