<svg id="Слой_1" data-name="Слой 1" xmlns="http://www.w3.org/2000/svg" viewBox="0 0 86 78">
  <title>wTilda_Icons_40_IT_design</title>
  <path d="M91.5,56H89c-.5-15.4-9.3-28.3-22.4-34H83v2.5a1.5,1.5,0,0,0,3,0v-8a1.5,1.5,0,0,0-3,0V19H56V16.5A1.5,1.5,0,0,0,54.5,15h-8A1.5,1.5,0,0,0,45,16.5V19H18V16.5a1.5,1.5,0,0,0-3,0v8a1.5,1.5,0,0,0,3,0V22H34.3A38.4,38.4,0,0,0,11,57H8.5A1.5,1.5,0,0,0,7,58.5H7v8A1.5,1.5,0,0,0,8.5,68h8A1.5,1.5,0,0,0,18,66.5v-8A1.5,1.5,0,0,0,16.5,57H14A35.6,35.6,0,0,1,45,22.1v2.4A1.5,1.5,0,0,0,46.5,26h2.6L33.5,65.5a2.1,2.1,0,0,0,0,1.1l5.6,15.2v9.7A1.5,1.5,0,0,0,40.5,93h19A1.5,1.5,0,0,0,61,91.5V81.8l6.8-15.1a1.3,1.3,0,0,0,0-1.2L51.9,26h2.6A1.5,1.5,0,0,0,56,24.5V22.1C73,24.5,85.4,38.4,86,56H83.5A1.5,1.5,0,0,0,82,57.5v8A1.5,1.5,0,0,0,83.5,67h8A1.5,1.5,0,0,0,93,65.5v-8A1.5,1.5,0,0,0,91.5,56ZM15,65H10V60h5ZM42,90V83H58v7ZM58.5,80H41.6L36.5,66.1,49,34.4V61.5a1.5,1.5,0,0,0,3,0V34.2L64.8,66ZM53,23H48V18h5ZM90,64H85V59h5Z" transform="translate(-7 -15)" fill="#fff"/>
</svg>
